<svg width="181" height="161" viewBox="0 0 181 161" fill="none" xmlns="http://www.w3.org/2000/svg">
<path d="M35.7528 133.587L25.7713 153.108L15.6683 133.587H12V160.071H14.8011V137.715L24.8607 157.227H26.6038L36.5854 137.715L36.6201 160.071H39.4645V133.587H35.7528Z" fill="black"/>
<path d="M63.1052 144.895C62.2467 143.386 61.0499 142.207 59.5323 141.366C58.006 140.516 56.2543 140.091 54.2857 140.091C52.3172 140.091 50.5741 140.516 49.0478 141.366C47.5215 142.207 46.3334 143.386 45.4749 144.895C44.6163 146.413 44.1914 148.156 44.1914 150.116C44.1914 152.076 44.6163 153.827 45.4749 155.336C46.3334 156.854 47.5215 158.033 49.0478 158.875C50.5741 159.724 52.3258 160.141 54.2857 160.141C56.2456 160.141 58.006 159.724 59.5323 158.875C61.0499 158.033 62.2467 156.854 63.1052 155.336C63.9638 153.827 64.3887 152.084 64.3887 150.116C64.3887 148.147 63.9638 146.413 63.1052 144.895ZM60.5296 154.114C59.9226 155.258 59.0901 156.152 58.0147 156.793C56.9394 157.435 55.6993 157.756 54.2857 157.756C52.8722 157.756 51.6667 157.435 50.5827 156.793C49.4987 156.152 48.6575 155.258 48.0505 154.114C47.4434 152.96 47.1399 151.633 47.1399 150.116C47.1399 148.598 47.4434 147.323 48.0505 146.187C48.6575 145.051 49.4987 144.158 50.5827 143.516C51.6667 142.875 52.8982 142.554 54.2857 142.554C55.6733 142.554 56.9394 142.875 58.0147 143.516C59.0901 144.158 59.9226 145.051 60.5296 146.187C61.1367 147.323 61.4402 148.633 61.4402 150.116C61.4402 151.599 61.1367 152.96 60.5296 154.114Z" fill="black"/>
<path d="M86.2695 143.707C85.6798 142.563 84.8126 141.669 83.6852 141.036C82.5492 140.412 81.1876 140.091 79.592 140.091C77.8055 140.091 76.2446 140.464 74.9264 141.21C73.5996 141.956 72.5849 143.074 71.8825 144.575C71.8652 144.609 71.8478 144.644 71.8391 144.679C71.154 146.162 70.8245 148.043 70.8245 150.307H71.8391C71.8391 148.087 72.4375 146.283 73.6169 144.878C74.805 143.482 76.4527 142.771 78.5774 142.745C80.3378 142.745 81.7166 143.256 82.7139 144.271C83.7112 145.294 84.2142 146.717 84.2142 148.529V160.072H87.1627V147.853C87.1627 146.24 86.8679 144.852 86.2695 143.707ZM68.8906 132V160.072H71.8391V132H68.8906Z" fill="black"/>
<path d="M102.325 156.551C101.77 156.906 101.232 157.158 100.694 157.323C100.165 157.487 99.6538 157.583 99.1508 157.609C98.2923 157.609 97.6332 157.34 97.1823 156.794C96.7226 156.256 96.4972 155.354 96.4972 154.088V135.634H93.5833V154.548C93.5833 155.857 93.8088 156.924 94.2511 157.756C94.6934 158.589 95.2917 159.205 96.0462 159.595C96.8007 159.985 97.6766 160.184 98.6565 160.184C99.437 160.184 100.209 160.046 100.981 159.786C101.752 159.517 102.472 159.161 103.157 158.71L102.325 156.551ZM90.7129 140.776V142.97H102.819V140.776H90.7129Z" fill="black"/>
<path d="M121.918 146.942C121.9 144.826 121.224 143.152 119.914 141.929C118.605 140.707 116.714 140.091 114.243 140.091C113.107 140.091 112.083 140.204 111.181 140.42C110.271 140.628 109.412 140.941 108.606 141.34C107.799 141.747 106.967 142.241 106.108 142.823L107.357 144.748C108.389 144.019 109.43 143.447 110.462 143.048C111.494 142.64 112.569 142.441 113.679 142.441C115.439 142.441 116.775 142.857 117.668 143.69C118.561 144.522 119.012 145.693 119.012 147.202V148.529L119.03 150.723L119.047 153.255L119.064 156.863L119.082 160.071H121.961L121.918 146.942ZM119.082 153.108C119.073 153.16 119.056 153.203 119.047 153.255C118.813 154.2 118.397 155.007 117.816 155.683C117.2 156.386 116.419 156.923 115.492 157.305C114.555 157.686 113.514 157.877 112.352 157.877C110.939 157.877 109.82 157.53 109.005 156.837C108.181 156.143 107.773 155.224 107.773 154.088C107.773 152.952 108.207 152.11 109.057 151.555C109.915 151 111.181 150.723 112.847 150.723H119.541V148.529H112.465C110.123 148.555 108.294 149.075 106.976 150.081C105.666 151.087 105.016 152.449 105.016 154.166C105.016 155.302 105.293 156.325 105.848 157.227C106.403 158.137 107.192 158.857 108.207 159.386C109.23 159.915 110.418 160.184 111.78 160.184C113.679 160.184 115.318 159.794 116.697 159.031C117.651 158.502 118.44 157.782 119.064 156.863C119.368 156.446 119.619 155.987 119.845 155.492L119.082 153.108Z" fill="black"/>
<path d="M159.731 143.707C159.141 142.562 158.291 141.669 157.181 141.036C156.071 140.412 154.744 140.091 153.209 140.091C151.414 140.091 149.879 140.464 148.596 141.21C147.304 141.955 146.315 143.074 145.621 144.574C145.508 144.817 145.404 145.077 145.318 145.346C144.823 146.708 144.58 148.373 144.58 150.307H145.604C145.604 148.086 146.185 146.283 147.347 144.878C148.5 143.482 150.105 142.753 152.151 142.701C153.86 142.701 155.212 143.221 156.192 144.253C157.181 145.294 157.667 146.716 157.667 148.529V160.071H160.624V147.852C160.624 146.239 160.32 144.852 159.731 143.707ZM145.318 145.346C145.179 144.756 144.971 144.21 144.711 143.707C144.121 142.562 143.28 141.669 142.178 141.036C141.086 140.412 139.75 140.091 138.189 140.091C136.429 140.091 134.902 140.464 133.61 141.21C132.327 141.955 131.338 143.074 130.644 144.574C130.618 144.618 130.601 144.67 130.584 144.722C129.933 146.196 129.604 148.06 129.604 150.307H130.584C130.584 148.086 131.165 146.283 132.327 144.878C133.489 143.482 135.085 142.753 137.131 142.701C138.874 142.701 140.227 143.221 141.198 144.253C142.17 145.294 142.655 146.716 142.655 148.529V160.071H145.604V147.852C145.604 146.942 145.508 146.109 145.318 145.346ZM127.67 140.169V160.071H130.584V140.169H127.67Z" fill="black"/>
<path d="M35.7528 133.587L25.7713 153.108L15.6683 133.587H12V160.071H14.8011V137.715L24.8607 157.227H26.6038L36.5854 137.715L36.6201 160.071H39.4645V133.587H35.7528Z" fill="#333333"/>
<path d="M63.1052 144.895C62.2467 143.386 61.0499 142.207 59.5323 141.366C58.006 140.516 56.2543 140.091 54.2857 140.091C52.3172 140.091 50.5741 140.516 49.0478 141.366C47.5215 142.207 46.3334 143.386 45.4749 144.895C44.6163 146.413 44.1914 148.156 44.1914 150.116C44.1914 152.076 44.6163 153.827 45.4749 155.336C46.3334 156.854 47.5215 158.033 49.0478 158.875C50.5741 159.724 52.3258 160.141 54.2857 160.141C56.2456 160.141 58.006 159.724 59.5323 158.875C61.0499 158.033 62.2467 156.854 63.1052 155.336C63.9638 153.827 64.3887 152.084 64.3887 150.116C64.3887 148.147 63.9638 146.413 63.1052 144.895ZM60.5296 154.114C59.9226 155.258 59.0901 156.152 58.0147 156.793C56.9394 157.435 55.6993 157.756 54.2857 157.756C52.8722 157.756 51.6667 157.435 50.5827 156.793C49.4987 156.152 48.6575 155.258 48.0505 154.114C47.4434 152.96 47.1399 151.633 47.1399 150.116C47.1399 148.598 47.4434 147.323 48.0505 146.187C48.6575 145.051 49.4987 144.158 50.5827 143.516C51.6667 142.875 52.8982 142.554 54.2857 142.554C55.6733 142.554 56.9394 142.875 58.0147 143.516C59.0901 144.158 59.9226 145.051 60.5296 146.187C61.1367 147.323 61.4402 148.633 61.4402 150.116C61.4402 151.599 61.1367 152.96 60.5296 154.114Z" fill="#333333"/>
<path d="M86.2695 143.707C85.6798 142.563 84.8126 141.669 83.6852 141.036C82.5492 140.412 81.1876 140.091 79.592 140.091C77.8055 140.091 76.2446 140.464 74.9264 141.21C73.5996 141.956 72.5849 143.074 71.8825 144.575C71.8652 144.609 71.8478 144.644 71.8391 144.679C71.154 146.162 70.8245 148.043 70.8245 150.307H71.8391C71.8391 148.087 72.4375 146.283 73.6169 144.878C74.805 143.482 76.4527 142.771 78.5774 142.745C80.3378 142.745 81.7166 143.256 82.7139 144.271C83.7112 145.294 84.2142 146.717 84.2142 148.529V160.072H87.1627V147.853C87.1627 146.24 86.8679 144.852 86.2695 143.707ZM68.8906 132V160.072H71.8391V132H68.8906Z" fill="#333333"/>
<path d="M102.325 156.551C101.77 156.906 101.232 157.158 100.694 157.323C100.165 157.487 99.6538 157.583 99.1508 157.609C98.2923 157.609 97.6332 157.34 97.1823 156.794C96.7226 156.256 96.4972 155.354 96.4972 154.088V135.634H93.5833V154.548C93.5833 155.857 93.8088 156.924 94.2511 157.756C94.6934 158.589 95.2917 159.205 96.0462 159.595C96.8007 159.985 97.6766 160.184 98.6565 160.184C99.437 160.184 100.209 160.046 100.981 159.786C101.752 159.517 102.472 159.161 103.157 158.71L102.325 156.551ZM90.7129 140.776V142.97H102.819V140.776H90.7129Z" fill="#333333"/>
<path d="M121.918 146.942C121.9 144.826 121.224 143.152 119.914 141.929C118.605 140.707 116.714 140.091 114.243 140.091C113.107 140.091 112.083 140.204 111.181 140.42C110.271 140.628 109.412 140.941 108.606 141.34C107.799 141.747 106.967 142.241 106.108 142.823L107.357 144.748C108.389 144.019 109.43 143.447 110.462 143.048C111.494 142.64 112.569 142.441 113.679 142.441C115.439 142.441 116.775 142.857 117.668 143.69C118.561 144.522 119.012 145.693 119.012 147.202V148.529L119.03 150.723L119.047 153.255L119.064 156.863L119.082 160.071H121.961L121.918 146.942ZM119.082 153.108C119.073 153.16 119.056 153.203 119.047 153.255C118.813 154.2 118.397 155.007 117.816 155.683C117.2 156.386 116.419 156.923 115.492 157.305C114.555 157.686 113.514 157.877 112.352 157.877C110.939 157.877 109.82 157.53 109.005 156.837C108.181 156.143 107.773 155.224 107.773 154.088C107.773 152.952 108.207 152.11 109.057 151.555C109.915 151 111.181 150.723 112.847 150.723H119.541V148.529H112.465C110.123 148.555 108.294 149.075 106.976 150.081C105.666 151.087 105.016 152.449 105.016 154.166C105.016 155.302 105.293 156.325 105.848 157.227C106.403 158.137 107.192 158.857 108.207 159.386C109.23 159.915 110.418 160.184 111.78 160.184C113.679 160.184 115.318 159.794 116.697 159.031C117.651 158.502 118.44 157.782 119.064 156.863C119.368 156.446 119.619 155.987 119.845 155.492L119.082 153.108Z" fill="#333333"/>
<path d="M159.731 143.707C159.141 142.562 158.291 141.669 157.181 141.036C156.071 140.412 154.744 140.091 153.209 140.091C151.414 140.091 149.879 140.464 148.596 141.21C147.304 141.955 146.315 143.074 145.621 144.574C145.508 144.817 145.404 145.077 145.318 145.346C144.823 146.708 144.58 148.373 144.58 150.307H145.604C145.604 148.086 146.185 146.283 147.347 144.878C148.5 143.482 150.105 142.753 152.151 142.701C153.86 142.701 155.212 143.221 156.192 144.253C157.181 145.294 157.667 146.716 157.667 148.529V160.071H160.624V147.852C160.624 146.239 160.32 144.852 159.731 143.707ZM145.318 145.346C145.179 144.756 144.971 144.21 144.711 143.707C144.121 142.562 143.28 141.669 142.178 141.036C141.086 140.412 139.75 140.091 138.189 140.091C136.429 140.091 134.902 140.464 133.61 141.21C132.327 141.955 131.338 143.074 130.644 144.574C130.618 144.618 130.601 144.67 130.584 144.722C129.933 146.196 129.604 148.06 129.604 150.307H130.584C130.584 148.086 131.165 146.283 132.327 144.878C133.489 143.482 135.085 142.753 137.131 142.701C138.874 142.701 140.227 143.221 141.198 144.253C142.17 145.294 142.655 146.716 142.655 148.529V160.071H145.604V147.852C145.604 146.942 145.508 146.109 145.318 145.346ZM127.67 140.169V160.071H130.584V140.169H127.67Z" fill="#333333"/>
<path d="M180.163 48.1594C179.452 57.7508 175.663 64.8532 170.026 70.1518C165.638 74.2797 160.131 77.3063 154.112 79.5264C154.112 79.5264 154.112 79.535 154.104 79.535C152.17 80.2548 150.193 80.8966 148.172 81.4602C148.172 81.4602 148.172 81.4602 148.163 81.4602C144.391 82.5096 140.497 83.3161 136.621 83.9405C111.663 87.9556 86.6349 89.2391 61.3905 89.005C41.939 88.8228 20.068 104.589 7.05985 118.091C10.7021 106.497 16.2176 95.5003 23.3287 85.6402L23.0165 85.5621C21.0653 85.0765 19.1574 84.4781 17.3276 83.741C13.7374 82.3014 10.4506 80.3242 7.69292 77.5578C-5.64475 64.1681 0.963376 42.5399 12.7401 30.6591C36.6577 6.52473 75.9336 -0.777171 108.497 0.0640219C119.051 0.341529 129.779 0.558331 140.159 2.65698C141.581 2.94316 142.986 3.26402 144.391 3.62825C145.102 3.81036 145.805 4.00982 146.507 4.21795C166.383 10.1236 181.785 26.115 180.163 48.1594Z" fill="url(#paint0_linear_704_11890)"/>
<path d="M154.978 36.4172C153.998 42.5917 153.981 48.9917 155.533 55.0795C157.181 61.5402 159.843 67.3678 158.577 74.1841C158.421 75.034 161.95 70.2903 162.228 69.8307C163.823 67.2378 166.104 64.0811 166.676 61.0112C167.804 54.9841 166.043 49.6768 164.335 43.9445C162.297 37.1109 161.959 30.2773 163.078 23.2442C163.216 22.351 159.695 27.1554 159.427 27.5976C157.866 30.1386 155.463 33.3732 154.978 36.4172Z" fill="url(#paint1_linear_704_11890)"/>
<path d="M160.632 69.6834L160.19 70.4985L165.037 62.8411C161.456 67.0471 154.891 69.3712 150.46 65.2086C145.083 60.1527 147.355 52.0877 149.428 46.0866C150.46 43.1034 147.277 47.6736 147.043 48.0292C145.074 50.9777 142.976 54.2904 141.805 57.6725C139.385 64.6709 135.769 77.3842 145.404 80.9311C154.041 84.1051 160.866 72.788 164.092 66.7782C164.352 66.2839 167.11 61.124 166.035 61.4362C164.144 61.9912 161.412 68.2178 160.623 69.692L160.632 69.6834Z" fill="url(#paint2_linear_704_11890)"/>
<path d="M32.9746 33.0095C36.0532 34.9607 39.4353 37.1114 43.2337 36.8599C46.6158 36.6344 48.6104 34.7092 50.5443 32.125C52.773 29.1418 54.7416 25.7249 56.2071 22.3081C57.1871 20.0447 57.031 19.3249 55.2272 21.7445C55.6001 21.2328 55.4353 21.3109 54.7156 21.9613C54.0565 22.3689 53.3454 22.655 52.5909 22.8025C51.4202 23.08 50.1887 23.0626 49.0093 22.8718C46.0608 22.3949 43.4679 20.6951 40.9963 19.1342C40.1811 18.6225 31.7779 32.255 32.9833 33.0182L32.9746 33.0095Z" fill="url(#paint3_linear_704_11890)"/>
<path d="M80.2715 27.7108C74.3138 37.2241 62.1642 43.4506 51.5756 45.7747C49.7285 46.1823 47.7339 50.8306 46.8753 52.3135C45.9388 53.9438 44.9675 55.6002 44.2477 57.3346C44.161 57.5341 43.3805 59.6934 43.5626 59.6501C59.5626 56.1292 70.9837 45.7487 79.4824 32.1682C80.3756 30.746 84.6596 24.9877 83.9312 23.3487C83.5062 22.4035 80.5404 27.2858 80.2802 27.7021L80.2715 27.7108Z" fill="url(#paint4_linear_704_11890)"/>
<path d="M130.945 26.2366C132.81 12.3179 114.356 3.32499 104.391 13.2632C102.102 15.544 100.498 18.7006 98.98 21.519C98.3383 22.6984 96.9508 24.5282 96.9074 25.8551C96.9074 25.9591 96.3437 27.5548 97.0375 26.861C106.447 17.4692 124.632 26.1673 122.846 39.4096C122.724 40.3288 126.236 35.4898 126.497 35.0562C128.032 32.5673 130.538 29.2459 130.945 26.2366Z" fill="url(#paint5_linear_704_11890)"/>
<path d="M144.851 29.3233C147.695 23.4783 149.82 17.538 148.935 10.9298C148.215 5.52711 145.631 0.306517 139.491 2.91682C133.603 5.41438 128.946 11.3114 125.226 16.3065C120.595 22.5244 116.632 29.3493 113.336 36.3651C110.457 42.4876 108.116 48.9743 107.413 55.7472C106.858 61.0545 106.121 68.0962 108.133 73.2301C112.166 83.5065 127.48 75.9792 132.805 70.7846C137.766 65.9456 141.486 59.8924 144.963 53.9521C148.103 48.5927 150.505 42.7998 154.91 38.3163C157.182 36.0008 158.795 32.8876 160.322 30.0605C160.963 28.881 162.351 27.0512 162.394 25.7244C162.394 25.629 162.949 24.016 162.264 24.7184C154.008 33.113 149.941 43.8317 143.411 53.3624C140.159 58.106 135.572 61.6529 130.03 63.1792C125.867 64.3239 120.482 65.59 117.404 61.6702C113.891 57.2041 114.984 49.3645 115.374 44.1179C115.903 37.1022 117.828 29.9564 121.54 25.4729C124.437 21.9694 131.825 13.2366 137.115 16.5407C142.431 19.8707 141.911 30.9103 139.604 35.6453C139.066 36.7553 136.872 40.0854 139.118 38.6805C141.364 37.2756 143.697 31.6995 144.851 29.332V29.3233Z" fill="url(#paint6_linear_704_11890)"/>
<path d="M86.453 19.134C81.1803 26.0283 74.763 35.3681 75.7256 44.5172C76.5928 52.7297 83.0101 58.3145 91.1706 58.644C99.331 58.9736 109.547 53.8744 116.216 49.3042C119.849 46.8153 122.39 43.2597 124.68 39.5568C127.238 35.4028 129.761 31.0234 130.932 26.2451C131.184 25.2305 129.831 26.7654 129.996 26.6354C128.972 27.4679 127.932 29.5492 127.281 30.5985C125.625 33.2868 123.604 36.3047 122.832 39.418C124.697 31.8299 128.755 31.7952 124.575 35.0039C123.457 35.8625 122.217 36.5909 121.003 37.302C118.514 38.7503 115.903 40.0077 113.25 41.1177C108.367 43.1644 103.303 45.263 97.9088 44.682C93.434 44.205 89.124 42.1237 86.505 38.3774C85.2215 36.5389 84.363 34.4229 83.9554 32.2202C83.6779 30.7373 83.6345 29.1936 83.7733 27.6933C84.1375 23.6435 86.6437 23.1578 80.2177 31.5438C82.4378 28.6473 84.337 25.4646 85.95 22.1952C86.2882 21.5188 88.2741 16.7578 86.4356 19.16L86.453 19.134Z" fill="url(#paint7_linear_704_11890)"/>
<path d="M103.359 14.8332C99.0489 20.5308 93.1519 29.0381 94.7475 36.6522C96.2391 43.7546 102.743 49.0186 109.395 51.1086C115.691 53.0858 122.654 52.5655 128.508 49.5042C135.81 45.6885 140.111 37.9617 143.953 31.024C144.222 30.5297 146.971 25.3698 145.895 25.682C143.979 26.2457 141.299 32.4549 140.484 33.9378C143.979 27.6245 142.288 31.0413 140.519 32.663C139.747 33.3741 138.897 34.0159 138.03 34.6056C135.871 36.0625 133.486 37.1031 130.953 37.7188C126.713 38.7508 122.186 38.5947 117.997 37.3893C113.783 36.1752 109.898 33.8858 106.949 30.6251C105.518 29.0468 104.278 27.2083 103.489 25.2224C102.899 23.7308 102.535 22.1698 102.535 20.5481C102.535 16.03 105.891 15.6484 98.6586 25.205C100.896 22.2478 102.882 18.805 104.322 15.3882C105.284 13.1161 105.154 12.4224 103.342 14.8245L103.359 14.8332Z" fill="url(#paint8_linear_704_11890)"/>
<path d="M67.5443 68.4529C67.5356 68.687 67.5009 68.9212 67.4662 69.164C66.9719 72.2079 64.5871 75.4339 63.0174 77.9835C62.7833 78.3564 60.2424 81.8339 59.5399 82.3802C59.4099 82.4756 59.3405 82.4756 59.3665 82.3369C59.4099 82.0681 59.4359 81.8166 59.4445 81.5737C59.4792 80.7586 59.3492 80.0561 59.089 79.4491C57.9096 76.7521 54.1719 75.8415 51.1627 75.087C45.6819 73.7168 41.4153 74.6014 36.4028 77.0643C31.5725 79.4404 27.167 82.3282 23.0131 85.5629C21.0619 85.0773 19.154 84.4789 17.3242 83.7418C25.8576 75.1304 34.9199 67.3255 46.1242 62.3477C46.6619 62.1136 47.1909 61.8968 47.7112 61.7147C51.8738 60.2144 55.7155 60.2577 60.1817 61.4805C63.1215 62.2783 65.9226 63.2756 67.05 65.5391C67.4489 66.3369 67.6397 67.2908 67.5443 68.4529Z" fill="url(#paint9_linear_704_11890)"/>
<path d="M57.1263 21.7184C57.8807 20.3395 58.6092 18.952 59.2422 17.5124C59.3897 17.1742 60.5951 14.4252 59.9013 15.7607L54.9409 24.1119C54.2558 24.823 54.4899 24.7796 55.6433 23.9818C56.1636 23.8431 56.6926 23.7824 57.239 23.8084C58.2189 23.8257 59.1815 24.1119 60.0834 24.4588C62.3035 25.3086 64.1853 26.5661 66.5962 26.8436C67.9924 26.9997 70.7154 21.3108 71.2964 20.3048C71.5913 19.7932 74.9474 13.0029 74.6092 12.9596C70.594 12.5 66.3013 8.12056 62.2601 10.7395C59.7539 12.3612 58.0108 16.0555 56.5886 18.5097C55.5219 20.3569 54.4899 22.2561 53.6054 24.2073C53.0677 25.404 51.1165 29.2284 53.6487 24.6235C52.981 25.8376 51.9057 27.5634 51.5761 28.9596C51.3333 29.9829 51.1165 29.8962 51.7062 29.9655C52.9203 30.113 56.7187 22.4469 57.1176 21.7097L57.1263 21.7184Z" fill="url(#paint10_linear_704_11890)"/>
<path d="M42.7815 60.1438C52.7023 61.1931 58.7901 73.6983 59.562 82.6825C59.6573 83.7666 62.9614 78.7454 63.2129 78.3292C64.4357 76.3519 67.8785 72.0506 67.6617 69.5096C66.8639 60.3086 61.1143 47.3525 50.7945 46.2684C49.3896 46.121 46.6752 51.7926 46.0942 52.8072C45.7994 53.3189 42.4606 60.1178 42.7815 60.1525V60.1438Z" fill="url(#paint11_linear_704_11890)"/>
<path d="M180.163 48.1594C179.452 57.7508 175.663 64.8532 170.026 70.1518C165.638 74.2797 160.131 77.3063 154.112 79.5264C154.112 79.5264 154.112 79.535 154.104 79.535C152.17 80.2548 150.193 80.8966 148.172 81.4602C148.172 81.4602 148.172 81.4602 148.163 81.4602C144.391 82.5096 140.497 83.3161 136.621 83.9405C111.663 87.9556 86.6349 89.2391 61.3905 89.005C41.939 88.8228 20.068 104.589 7.05985 118.091C10.7021 106.497 16.2176 95.5003 23.3287 85.6402L23.0165 85.5621C21.0653 85.0765 19.1574 84.4781 17.3276 83.741C13.7374 82.3014 10.4506 80.3242 7.69292 77.5578C-5.64475 64.1681 0.963376 42.5399 12.7401 30.6591C36.6577 6.52473 75.9336 -0.777171 108.497 0.0640219C119.051 0.341529 129.779 0.558331 140.159 2.65698C141.581 2.94316 142.986 3.26402 144.391 3.62825C145.102 3.81036 145.805 4.00982 146.507 4.21795C166.383 10.1236 181.785 26.115 180.163 48.1594Z" fill="url(#paint12_linear_704_11890)"/>
<path d="M154.978 36.4172C153.998 42.5917 153.981 48.9917 155.533 55.0795C157.181 61.5402 159.843 67.3678 158.577 74.1841C158.421 75.034 161.95 70.2903 162.228 69.8307C163.823 67.2378 166.104 64.0811 166.676 61.0112C167.804 54.9841 166.043 49.6768 164.335 43.9445C162.297 37.1109 161.959 30.2773 163.078 23.2442C163.216 22.351 159.695 27.1554 159.427 27.5976C157.866 30.1386 155.463 33.3732 154.978 36.4172Z" fill="url(#paint13_linear_704_11890)"/>
<path d="M160.632 69.6834L160.19 70.4985L165.037 62.8411C161.456 67.0471 154.891 69.3712 150.46 65.2086C145.083 60.1527 147.355 52.0877 149.428 46.0866C150.46 43.1034 147.277 47.6736 147.043 48.0292C145.074 50.9777 142.976 54.2904 141.805 57.6725C139.385 64.6709 135.769 77.3842 145.404 80.9311C154.041 84.1051 160.866 72.788 164.092 66.7782C164.352 66.2839 167.11 61.124 166.035 61.4362C164.144 61.9912 161.412 68.2178 160.623 69.692L160.632 69.6834Z" fill="url(#paint14_linear_704_11890)"/>
<path d="M32.9746 33.0095C36.0532 34.9607 39.4353 37.1114 43.2337 36.8599C46.6158 36.6344 48.6104 34.7092 50.5443 32.125C52.773 29.1418 54.7416 25.7249 56.2071 22.3081C57.1871 20.0447 57.031 19.3249 55.2272 21.7445C55.6001 21.2328 55.4353 21.3109 54.7156 21.9613C54.0565 22.3689 53.3454 22.655 52.5909 22.8025C51.4202 23.08 50.1887 23.0626 49.0093 22.8718C46.0608 22.3949 43.4679 20.6951 40.9963 19.1342C40.1811 18.6225 31.7779 32.255 32.9833 33.0182L32.9746 33.0095Z" fill="url(#paint15_linear_704_11890)"/>
<path d="M80.2715 27.7108C74.3138 37.2241 62.1642 43.4506 51.5756 45.7747C49.7285 46.1823 47.7339 50.8306 46.8753 52.3135C45.9388 53.9438 44.9675 55.6002 44.2477 57.3346C44.161 57.5341 43.3805 59.6934 43.5626 59.6501C59.5626 56.1292 70.9837 45.7487 79.4824 32.1682C80.3756 30.746 84.6596 24.9877 83.9312 23.3487C83.5062 22.4035 80.5404 27.2858 80.2802 27.7021L80.2715 27.7108Z" fill="url(#paint16_linear_704_11890)"/>
<path d="M130.945 26.2366C132.81 12.3179 114.356 3.32499 104.391 13.2632C102.102 15.544 100.498 18.7006 98.98 21.519C98.3383 22.6984 96.9508 24.5282 96.9074 25.8551C96.9074 25.9591 96.3437 27.5548 97.0375 26.861C106.447 17.4692 124.632 26.1673 122.846 39.4096C122.724 40.3288 126.236 35.4898 126.497 35.0562C128.032 32.5673 130.538 29.2459 130.945 26.2366Z" fill="url(#paint17_linear_704_11890)"/>
<path d="M144.851 29.3233C147.695 23.4783 149.82 17.538 148.935 10.9298C148.215 5.52711 145.631 0.306517 139.491 2.91682C133.603 5.41438 128.946 11.3114 125.226 16.3065C120.595 22.5244 116.632 29.3493 113.336 36.3651C110.457 42.4876 108.116 48.9743 107.413 55.7472C106.858 61.0545 106.121 68.0962 108.133 73.2301C112.166 83.5065 127.48 75.9792 132.805 70.7846C137.766 65.9456 141.486 59.8924 144.963 53.9521C148.103 48.5927 150.505 42.7998 154.91 38.3163C157.182 36.0008 158.795 32.8876 160.322 30.0605C160.963 28.881 162.351 27.0512 162.394 25.7244C162.394 25.629 162.949 24.016 162.264 24.7184C154.008 33.113 149.941 43.8317 143.411 53.3624C140.159 58.106 135.572 61.6529 130.03 63.1792C125.867 64.3239 120.482 65.59 117.404 61.6702C113.891 57.2041 114.984 49.3645 115.374 44.1179C115.903 37.1022 117.828 29.9564 121.54 25.4729C124.437 21.9694 131.825 13.2366 137.115 16.5407C142.431 19.8707 141.911 30.9103 139.604 35.6453C139.066 36.7553 136.872 40.0854 139.118 38.6805C141.364 37.2756 143.697 31.6995 144.851 29.332V29.3233Z" fill="url(#paint18_linear_704_11890)"/>
<path d="M86.453 19.134C81.1803 26.0283 74.763 35.3681 75.7256 44.5172C76.5928 52.7297 83.0101 58.3145 91.1706 58.644C99.331 58.9736 109.547 53.8744 116.216 49.3042C119.849 46.8153 122.39 43.2597 124.68 39.5568C127.238 35.4028 129.761 31.0234 130.932 26.2451C131.184 25.2305 129.831 26.7654 129.996 26.6354C128.972 27.4679 127.932 29.5492 127.281 30.5985C125.625 33.2868 123.604 36.3047 122.832 39.418C124.697 31.8299 128.755 31.7952 124.575 35.0039C123.457 35.8625 122.217 36.5909 121.003 37.302C118.514 38.7503 115.903 40.0077 113.25 41.1177C108.367 43.1644 103.303 45.263 97.9088 44.682C93.434 44.205 89.124 42.1237 86.505 38.3774C85.2215 36.5389 84.363 34.4229 83.9554 32.2202C83.6779 30.7373 83.6345 29.1936 83.7733 27.6933C84.1375 23.6435 86.6437 23.1578 80.2177 31.5438C82.4378 28.6473 84.337 25.4646 85.95 22.1952C86.2882 21.5188 88.2741 16.7578 86.4356 19.16L86.453 19.134Z" fill="url(#paint19_linear_704_11890)"/>
<path d="M103.359 14.8332C99.0489 20.5308 93.1519 29.0381 94.7475 36.6522C96.2391 43.7546 102.743 49.0186 109.395 51.1086C115.691 53.0858 122.654 52.5655 128.508 49.5042C135.81 45.6885 140.111 37.9617 143.953 31.024C144.222 30.5297 146.971 25.3698 145.895 25.682C143.979 26.2457 141.299 32.4549 140.484 33.9378C143.979 27.6245 142.288 31.0413 140.519 32.663C139.747 33.3741 138.897 34.0159 138.03 34.6056C135.871 36.0625 133.486 37.1031 130.953 37.7188C126.713 38.7508 122.186 38.5947 117.997 37.3893C113.783 36.1752 109.898 33.8858 106.949 30.6251C105.518 29.0468 104.278 27.2083 103.489 25.2224C102.899 23.7308 102.535 22.1698 102.535 20.5481C102.535 16.03 105.891 15.6484 98.6586 25.205C100.896 22.2478 102.882 18.805 104.322 15.3882C105.284 13.1161 105.154 12.4224 103.342 14.8245L103.359 14.8332Z" fill="url(#paint20_linear_704_11890)"/>
<path d="M67.5443 68.4529C67.5356 68.687 67.5009 68.9212 67.4662 69.164C66.9719 72.2079 64.5871 75.4339 63.0174 77.9835C62.7833 78.3564 60.2424 81.8339 59.5399 82.3802C59.4099 82.4756 59.3405 82.4756 59.3665 82.3369C59.4099 82.0681 59.4359 81.8166 59.4445 81.5737C59.4792 80.7586 59.3492 80.0561 59.089 79.4491C57.9096 76.7521 54.1719 75.8415 51.1627 75.087C45.6819 73.7168 41.4153 74.6014 36.4028 77.0643C31.5725 79.4404 27.167 82.3282 23.0131 85.5629C21.0619 85.0773 19.154 84.4789 17.3242 83.7418C25.8576 75.1304 34.9199 67.3255 46.1242 62.3477C46.6619 62.1136 47.1909 61.8968 47.7112 61.7147C51.8738 60.2144 55.7155 60.2577 60.1817 61.4805C63.1215 62.2783 65.9226 63.2756 67.05 65.5391C67.4489 66.3369 67.6397 67.2908 67.5443 68.4529Z" fill="url(#paint21_linear_704_11890)"/>
<path d="M57.1263 21.7184C57.8807 20.3395 58.6092 18.952 59.2422 17.5124C59.3897 17.1742 60.5951 14.4252 59.9013 15.7607L54.9409 24.1119C54.2558 24.823 54.4899 24.7796 55.6433 23.9818C56.1636 23.8431 56.6926 23.7824 57.239 23.8084C58.2189 23.8257 59.1815 24.1119 60.0834 24.4588C62.3035 25.3086 64.1853 26.5661 66.5962 26.8436C67.9924 26.9997 70.7154 21.3108 71.2964 20.3048C71.5913 19.7932 74.9474 13.0029 74.6092 12.9596C70.594 12.5 66.3013 8.12056 62.2601 10.7395C59.7539 12.3612 58.0108 16.0555 56.5886 18.5097C55.5219 20.3569 54.4899 22.2561 53.6054 24.2073C53.0677 25.404 51.1165 29.2284 53.6487 24.6235C52.981 25.8376 51.9057 27.5634 51.5761 28.9596C51.3333 29.9829 51.1165 29.8962 51.7062 29.9655C52.9203 30.113 56.7187 22.4469 57.1176 21.7097L57.1263 21.7184Z" fill="url(#paint22_linear_704_11890)"/>
<path d="M42.7815 60.1438C52.7023 61.1931 58.7901 73.6983 59.562 82.6825C59.6573 83.7666 62.9614 78.7454 63.2129 78.3292C64.4357 76.3519 67.8785 72.0506 67.6617 69.5096C66.8639 60.3086 61.1143 47.3525 50.7945 46.2684C49.3896 46.121 46.6752 51.7926 46.0942 52.8072C45.7994 53.3189 42.4606 60.1178 42.7815 60.1525V60.1438Z" fill="url(#paint23_linear_704_11890)"/>
<defs>
<linearGradient id="paint0_linear_704_11890" x1="11.9856" y1="27.6066" x2="156.367" y2="101.172" gradientUnits="userSpaceOnUse">
<stop offset="0.2" stop-color="#ED1C24"/>
<stop offset="0.54" stop-color="#B9131D"/>
<stop offset="0.84" stop-color="#910C17"/>
<stop offset="1" stop-color="#830A16"/>
</linearGradient>
<linearGradient id="paint1_linear_704_11890" x1="171.368" y1="57.551" x2="150.295" y2="39.8773" gradientUnits="userSpaceOnUse">
<stop stop-color="#D1A094"/>
<stop offset="0.14" stop-color="#DBB5AB"/>
<stop offset="0.39" stop-color="#EAD5CF"/>
<stop offset="0.62" stop-color="#F5ECE9"/>
<stop offset="0.83" stop-color="#FCFAF9"/>
<stop offset="1" stop-color="white"/>
</linearGradient>
<linearGradient id="paint2_linear_704_11890" x1="141.449" y1="55.0796" x2="157.094" y2="73.7246" gradientUnits="userSpaceOnUse">
<stop stop-color="#D1A094"/>
<stop offset="0.14" stop-color="#DBB5AB"/>
<stop offset="0.39" stop-color="#EAD5CF"/>
<stop offset="0.62" stop-color="#F5ECE9"/>
<stop offset="0.83" stop-color="#FCFAF9"/>
<stop offset="1" stop-color="white"/>
</linearGradient>
<linearGradient id="paint3_linear_704_11890" x1="38.6722" y1="23.106" x2="51.212" y2="30.3472" gradientUnits="userSpaceOnUse">
<stop stop-color="white"/>
<stop offset="0.28" stop-color="#FDFCFB"/>
<stop offset="0.48" stop-color="#F9F4F2"/>
<stop offset="0.67" stop-color="#F2E6E2"/>
<stop offset="0.85" stop-color="#E8D2CB"/>
<stop offset="1" stop-color="#DDBBB0"/>
</linearGradient>
<linearGradient id="paint4_linear_704_11890" x1="47.5084" y1="41.4474" x2="80.0981" y2="41.4474" gradientUnits="userSpaceOnUse">
<stop stop-color="#EBD8D2"/>
<stop offset="0.37" stop-color="#F5ECE9"/>
<stop offset="0.72" stop-color="#FCFAF9"/>
<stop offset="1" stop-color="white"/>
</linearGradient>
<linearGradient id="paint5_linear_704_11890" x1="124.19" y1="35.3597" x2="106.716" y2="14.538" gradientUnits="userSpaceOnUse">
<stop stop-color="white"/>
<stop offset="0.3" stop-color="#FDFCFC"/>
<stop offset="0.52" stop-color="#F9F4F2"/>
<stop offset="0.71" stop-color="#F2E6E2"/>
<stop offset="0.89" stop-color="#E8D3CC"/>
<stop offset="1" stop-color="#E1C4BA"/>
</linearGradient>
<linearGradient id="paint6_linear_704_11890" x1="105.193" y1="55.0621" x2="155.5" y2="26.0193" gradientUnits="userSpaceOnUse">
<stop stop-color="#DFBFB5"/>
<stop offset="1" stop-color="white"/>
</linearGradient>
<linearGradient id="paint7_linear_704_11890" x1="79.8969" y1="31.379" x2="122.251" y2="46.798" gradientUnits="userSpaceOnUse">
<stop stop-color="white"/>
<stop offset="0.29" stop-color="#FCFAF9"/>
<stop offset="0.65" stop-color="#F5ECE9"/>
<stop offset="1" stop-color="#EBDAD4"/>
</linearGradient>
<linearGradient id="paint8_linear_704_11890" x1="103.09" y1="39.2451" x2="135.498" y2="20.5394" gradientUnits="userSpaceOnUse">
<stop stop-color="white"/>
<stop offset="0.17" stop-color="#FCFAF9"/>
<stop offset="0.38" stop-color="#F5ECE9"/>
<stop offset="0.61" stop-color="#EAD5CF"/>
<stop offset="0.86" stop-color="#DBB5AB"/>
<stop offset="1" stop-color="#D1A094"/>
</linearGradient>
<linearGradient id="paint9_linear_704_11890" x1="22.0679" y1="70.0138" x2="63.7199" y2="77.3591" gradientUnits="userSpaceOnUse">
<stop stop-color="white"/>
<stop offset="0.44" stop-color="#FEFDFD"/>
<stop offset="0.6" stop-color="#FBF7F6"/>
<stop offset="0.72" stop-color="#F6ECEA"/>
<stop offset="0.81" stop-color="#EEDDD9"/>
<stop offset="0.89" stop-color="#E5CAC3"/>
<stop offset="0.96" stop-color="#DAB2A9"/>
<stop offset="1" stop-color="#D1A094"/>
</linearGradient>
<linearGradient id="paint10_linear_704_11890" x1="57.5945" y1="17.9374" x2="67.7582" y2="24.5368" gradientUnits="userSpaceOnUse">
<stop stop-color="white"/>
<stop offset="0.42" stop-color="#FEFDFC"/>
<stop offset="0.6" stop-color="#FBF7F5"/>
<stop offset="0.74" stop-color="#F5ECE9"/>
<stop offset="0.85" stop-color="#EEDDD7"/>
<stop offset="0.95" stop-color="#E4C9C0"/>
<stop offset="1" stop-color="#DDBBB0"/>
</linearGradient>
<linearGradient id="paint11_linear_704_11890" x1="47.5338" y1="52.3216" x2="65.9793" y2="74.314" gradientUnits="userSpaceOnUse">
<stop stop-color="white"/>
<stop offset="0.36" stop-color="#FDFCFC"/>
<stop offset="0.57" stop-color="#FAF5F4"/>
<stop offset="0.73" stop-color="#F4E9E6"/>
<stop offset="0.88" stop-color="#EBD8D2"/>
<stop offset="1" stop-color="#E2C5BC"/>
</linearGradient>
<linearGradient id="paint12_linear_704_11890" x1="11.9856" y1="27.6066" x2="156.367" y2="101.172" gradientUnits="userSpaceOnUse">
<stop offset="0.2" stop-color="#ED1C24"/>
<stop offset="0.54" stop-color="#B9131D"/>
<stop offset="0.84" stop-color="#910C17"/>
<stop offset="1" stop-color="#830A16"/>
</linearGradient>
<linearGradient id="paint13_linear_704_11890" x1="171.368" y1="57.551" x2="150.295" y2="39.8773" gradientUnits="userSpaceOnUse">
<stop stop-color="#D1A094"/>
<stop offset="0.14" stop-color="#DBB5AB"/>
<stop offset="0.39" stop-color="#EAD5CF"/>
<stop offset="0.62" stop-color="#F5ECE9"/>
<stop offset="0.83" stop-color="#FCFAF9"/>
<stop offset="1" stop-color="white"/>
</linearGradient>
<linearGradient id="paint14_linear_704_11890" x1="141.449" y1="55.0796" x2="157.094" y2="73.7246" gradientUnits="userSpaceOnUse">
<stop stop-color="#D1A094"/>
<stop offset="0.14" stop-color="#DBB5AB"/>
<stop offset="0.39" stop-color="#EAD5CF"/>
<stop offset="0.62" stop-color="#F5ECE9"/>
<stop offset="0.83" stop-color="#FCFAF9"/>
<stop offset="1" stop-color="white"/>
</linearGradient>
<linearGradient id="paint15_linear_704_11890" x1="38.6722" y1="23.106" x2="51.212" y2="30.3472" gradientUnits="userSpaceOnUse">
<stop stop-color="white"/>
<stop offset="0.28" stop-color="#FDFCFB"/>
<stop offset="0.48" stop-color="#F9F4F2"/>
<stop offset="0.67" stop-color="#F2E6E2"/>
<stop offset="0.85" stop-color="#E8D2CB"/>
<stop offset="1" stop-color="#DDBBB0"/>
</linearGradient>
<linearGradient id="paint16_linear_704_11890" x1="47.5084" y1="41.4474" x2="80.0981" y2="41.4474" gradientUnits="userSpaceOnUse">
<stop stop-color="#EBD8D2"/>
<stop offset="0.37" stop-color="#F5ECE9"/>
<stop offset="0.72" stop-color="#FCFAF9"/>
<stop offset="1" stop-color="white"/>
</linearGradient>
<linearGradient id="paint17_linear_704_11890" x1="124.19" y1="35.3597" x2="106.716" y2="14.538" gradientUnits="userSpaceOnUse">
<stop stop-color="white"/>
<stop offset="0.3" stop-color="#FDFCFC"/>
<stop offset="0.52" stop-color="#F9F4F2"/>
<stop offset="0.71" stop-color="#F2E6E2"/>
<stop offset="0.89" stop-color="#E8D3CC"/>
<stop offset="1" stop-color="#E1C4BA"/>
</linearGradient>
<linearGradient id="paint18_linear_704_11890" x1="105.193" y1="55.0621" x2="155.5" y2="26.0193" gradientUnits="userSpaceOnUse">
<stop stop-color="#DFBFB5"/>
<stop offset="1" stop-color="white"/>
</linearGradient>
<linearGradient id="paint19_linear_704_11890" x1="79.8969" y1="31.379" x2="122.251" y2="46.798" gradientUnits="userSpaceOnUse">
<stop stop-color="white"/>
<stop offset="0.29" stop-color="#FCFAF9"/>
<stop offset="0.65" stop-color="#F5ECE9"/>
<stop offset="1" stop-color="#EBDAD4"/>
</linearGradient>
<linearGradient id="paint20_linear_704_11890" x1="103.09" y1="39.2451" x2="135.498" y2="20.5394" gradientUnits="userSpaceOnUse">
<stop stop-color="white"/>
<stop offset="0.17" stop-color="#FCFAF9"/>
<stop offset="0.38" stop-color="#F5ECE9"/>
<stop offset="0.61" stop-color="#EAD5CF"/>
<stop offset="0.86" stop-color="#DBB5AB"/>
<stop offset="1" stop-color="#D1A094"/>
</linearGradient>
<linearGradient id="paint21_linear_704_11890" x1="22.0679" y1="70.0138" x2="63.7199" y2="77.3591" gradientUnits="userSpaceOnUse">
<stop stop-color="white"/>
<stop offset="0.44" stop-color="#FEFDFD"/>
<stop offset="0.6" stop-color="#FBF7F6"/>
<stop offset="0.72" stop-color="#F6ECEA"/>
<stop offset="0.81" stop-color="#EEDDD9"/>
<stop offset="0.89" stop-color="#E5CAC3"/>
<stop offset="0.96" stop-color="#DAB2A9"/>
<stop offset="1" stop-color="#D1A094"/>
</linearGradient>
<linearGradient id="paint22_linear_704_11890" x1="57.5945" y1="17.9374" x2="67.7582" y2="24.5368" gradientUnits="userSpaceOnUse">
<stop stop-color="white"/>
<stop offset="0.42" stop-color="#FEFDFC"/>
<stop offset="0.6" stop-color="#FBF7F5"/>
<stop offset="0.74" stop-color="#F5ECE9"/>
<stop offset="0.85" stop-color="#EEDDD7"/>
<stop offset="0.95" stop-color="#E4C9C0"/>
<stop offset="1" stop-color="#DDBBB0"/>
</linearGradient>
<linearGradient id="paint23_linear_704_11890" x1="47.5338" y1="52.3216" x2="65.9793" y2="74.314" gradientUnits="userSpaceOnUse">
<stop stop-color="white"/>
<stop offset="0.36" stop-color="#FDFCFC"/>
<stop offset="0.57" stop-color="#FAF5F4"/>
<stop offset="0.73" stop-color="#F4E9E6"/>
<stop offset="0.88" stop-color="#EBD8D2"/>
<stop offset="1" stop-color="#E2C5BC"/>
</linearGradient>
</defs>
</svg>
