<svg width="166" height="109" viewBox="0 0 166 109" fill="none" xmlns="http://www.w3.org/2000/svg">
<path d="M165.549 44.2465C164.896 53.0586 161.414 59.584 156.235 64.4521C152.204 68.2446 147.144 71.0253 141.615 73.065C141.615 73.065 141.615 73.0729 141.607 73.0729C139.83 73.7342 138.014 74.3238 136.157 74.8417C136.157 74.8417 136.157 74.8417 136.149 74.8417C132.683 75.8058 129.106 76.5468 125.545 77.1204C102.614 80.8094 79.6199 81.9885 56.4265 81.7734C38.5554 81.6061 18.4614 96.091 6.51018 108.496C9.85652 97.8439 14.9239 87.7411 21.4572 78.682L21.1704 78.6103C19.3777 78.1642 17.6248 77.6144 15.9437 76.9372C12.6451 75.6145 9.62547 73.798 7.0918 71.2563C-5.1622 58.9545 0.909029 39.0836 11.7289 28.1681C33.7032 5.9946 69.788 -0.714027 99.7059 0.0588202C109.402 0.31378 119.258 0.512967 128.795 2.4411C130.102 2.70403 131.393 2.99882 132.683 3.33346C133.337 3.50078 133.982 3.68403 134.627 3.87525C152.889 9.30111 167.039 23.9932 165.549 44.2465Z" fill="url(#paint0_linear_1063_651)"/>
<path d="M142.41 33.4587C141.509 39.1315 141.493 45.0115 142.92 50.6047C144.433 56.5405 146.879 61.8947 145.716 68.1571C145.573 68.9379 148.815 64.5797 149.07 64.1574C150.536 61.7751 152.632 58.875 153.158 56.0545C154.194 50.5171 152.576 45.641 151.007 40.3745C149.134 34.0961 148.823 27.8177 149.851 21.356C149.979 20.5354 146.744 24.9494 146.497 25.3557C145.063 27.6902 142.856 30.6621 142.41 33.4587Z" fill="url(#paint1_linear_1063_651)"/>
<path d="M147.605 64.0219L147.199 64.7708L151.652 57.7355C148.362 61.5997 142.33 63.735 138.259 59.9106C133.319 55.2656 135.407 47.8558 137.311 42.3423C138.259 39.6015 135.335 43.8004 135.12 44.127C133.311 46.836 131.383 49.8796 130.307 52.9869C128.084 59.4166 124.762 71.097 133.614 74.3557C141.55 77.2718 147.82 66.8742 150.784 61.3527C151.023 60.8986 153.557 56.1579 152.569 56.4448C150.832 56.9547 148.322 62.6754 147.597 64.0298L147.605 64.0219Z" fill="url(#paint2_linear_1063_651)"/>
<path d="M30.3185 30.3275C33.147 32.1202 36.2543 34.0961 39.7441 33.8651C42.8514 33.6579 44.6839 31.8891 46.4607 29.5148C48.5083 26.774 50.3169 23.6348 51.6634 20.4956C52.5638 18.4161 52.4203 17.7548 50.7631 19.9777C51.1057 19.5076 50.9543 19.5793 50.293 20.1769C49.6875 20.5514 49.0342 20.8143 48.341 20.9498C47.2654 21.2047 46.134 21.1888 45.0504 21.0135C42.3415 20.5753 39.9592 19.0137 37.6885 17.5795C36.9395 17.1094 29.219 29.6343 30.3265 30.3355L30.3185 30.3275Z" fill="url(#paint3_linear_1063_651)"/>
<path d="M73.7736 25.4593C68.2999 34.1997 57.1375 39.9203 47.4092 42.0556C45.7121 42.4301 43.8796 46.7007 43.0908 48.0631C42.2303 49.561 41.3379 51.0828 40.6766 52.6763C40.5969 52.8595 39.8799 54.8434 40.0472 54.8036C54.7472 51.5688 65.2404 42.0317 73.0485 29.5546C73.8692 28.2479 77.8051 22.9575 77.1359 21.4517C76.7455 20.5832 74.0206 25.0689 73.7816 25.4513L73.7736 25.4593Z" fill="url(#paint4_linear_1063_651)"/>
<path d="M120.33 24.1049C122.043 11.3171 105.088 3.05476 95.9333 12.1855C93.8299 14.281 92.3559 17.1811 90.9616 19.7706C90.372 20.8541 89.0972 22.5353 89.0574 23.7543C89.0574 23.8499 88.5395 25.3159 89.1769 24.6785C97.8216 16.0497 114.529 24.0411 112.888 36.2075C112.777 37.0521 116.003 32.6062 116.242 32.2078C117.653 29.9211 119.955 26.8696 120.33 24.1049Z" fill="url(#paint5_linear_1063_651)"/>
<path d="M133.105 26.9413C135.718 21.5712 137.67 16.1134 136.858 10.0422C136.196 5.07847 133.822 0.282036 128.181 2.68025C122.771 4.97489 118.493 10.3928 115.074 14.9821C110.82 20.6948 107.179 26.9652 104.151 33.4109C101.506 39.0359 99.3546 44.9956 98.7093 51.2182C98.1993 56.0943 97.5221 62.5639 99.3706 67.2807C103.075 76.7222 117.146 69.8064 122.038 65.0339C126.595 60.588 130.014 55.0267 133.209 49.5689C136.093 44.645 138.3 39.3228 142.347 35.2036C144.435 33.0762 145.917 30.2159 147.319 27.6185C147.909 26.5349 149.183 24.8538 149.223 23.6348C149.223 23.5471 149.733 22.0652 149.104 22.7105C141.519 30.4231 137.782 40.2709 131.782 49.0272C128.795 53.3854 124.58 56.6441 119.488 58.0464C115.664 59.0981 110.716 60.2613 107.888 56.66C104.661 52.5568 105.665 45.3541 106.023 40.5338C106.509 34.0881 108.278 27.5229 111.688 23.4037C114.349 20.1848 121.138 12.1616 125.998 15.1972C130.882 18.2567 130.404 28.3993 128.285 32.7496C127.791 33.7694 125.775 36.8289 127.838 35.5382C129.902 34.2475 132.045 29.1244 133.105 26.9492V26.9413Z" fill="url(#paint6_linear_1063_651)"/>
<path d="M79.4536 17.5793C74.6094 23.9135 68.7135 32.4945 69.5979 40.9002C70.3946 48.4454 76.2905 53.5765 83.788 53.8792C91.2854 54.182 100.671 49.4971 106.798 45.2982C110.136 43.0116 112.471 39.7449 114.574 36.3428C116.925 32.5263 119.243 28.5028 120.319 24.1127C120.55 23.1805 119.307 24.5907 119.458 24.4712C118.518 25.2361 117.562 27.1483 116.965 28.1124C115.443 30.5823 113.586 33.355 112.877 36.2153C114.59 29.2437 118.319 29.2119 114.479 32.1598C113.451 32.9486 112.312 33.6179 111.196 34.2712C108.909 35.6018 106.511 36.7571 104.073 37.7769C99.5875 39.6573 94.9345 41.5854 89.9787 41.0516C85.8675 40.6134 81.9076 38.7012 79.5015 35.2592C78.3223 33.5701 77.5335 31.626 77.159 29.6023C76.904 28.2398 76.8642 26.8216 76.9917 25.4432C77.3263 21.7224 79.6289 21.2762 73.725 28.9808C75.7647 26.3197 77.5096 23.3956 78.9915 20.3919C79.3023 19.7704 81.1268 15.3962 79.4377 17.6032L79.4536 17.5793Z" fill="url(#paint7_linear_1063_651)"/>
<path d="M94.9852 13.6278C91.0254 18.8625 85.6075 26.6786 87.0735 33.674C88.4439 40.1994 94.4195 45.0357 100.531 46.9559C106.315 48.7724 112.713 48.2944 118.091 45.4819C124.8 41.9762 128.751 34.8771 132.281 28.5031C132.528 28.049 135.054 23.3083 134.066 23.5952C132.305 24.1131 129.843 29.8178 129.094 31.1802C132.305 25.3799 130.751 28.5191 129.126 30.009C128.417 30.6623 127.636 31.2519 126.839 31.7937C124.855 33.1323 122.664 34.0884 120.338 34.6541C116.442 35.6022 112.283 35.4588 108.434 34.3513C104.562 33.2358 100.993 31.1324 98.2837 28.1366C96.9691 26.6866 95.8298 24.9974 95.1047 23.1729C94.5629 21.8025 94.2283 20.3683 94.2283 18.8784C94.2283 14.7273 97.3117 14.3768 90.6668 23.157C92.7224 20.44 94.547 17.2769 95.8696 14.1378C96.754 12.0503 96.6345 11.4129 94.9693 13.6199L94.9852 13.6278Z" fill="url(#paint8_linear_1063_651)"/>
<path d="M62.0809 62.8908C62.0729 63.1059 62.0411 63.321 62.0092 63.5441C61.5551 66.3407 59.364 69.3046 57.9219 71.6471C57.7068 71.9897 55.3723 75.1846 54.7269 75.6866C54.6074 75.7742 54.5437 75.7742 54.5676 75.6467C54.6074 75.3997 54.6313 75.1687 54.6393 74.9456C54.6711 74.1966 54.5516 73.5513 54.3126 72.9936C53.229 70.5157 49.795 69.6791 47.0303 68.9859C41.9949 67.727 38.0749 68.5397 33.4696 70.8025C29.0318 72.9856 24.9843 75.6388 21.1678 78.6106C19.3752 78.1645 17.6223 77.6147 15.9412 76.9375C23.7812 69.0257 32.1072 61.855 42.4012 57.2817C42.8952 57.0665 43.3812 56.8674 43.8593 56.7C47.6837 55.3217 51.2132 55.3615 55.3165 56.4849C58.0175 57.2179 60.591 58.1342 61.6268 60.2137C61.9933 60.9467 62.1685 61.8231 62.0809 62.8908Z" fill="url(#paint9_linear_1063_651)"/>
<path d="M52.5084 19.9537C53.2016 18.6869 53.8709 17.4121 54.4525 16.0895C54.5879 15.7788 55.6954 13.2531 55.058 14.4801L50.5006 22.1528C49.8712 22.8061 50.0863 22.7662 51.146 22.0332C51.624 21.9058 52.1101 21.85 52.612 21.8739C53.5123 21.8898 54.3967 22.1528 55.2253 22.4715C57.265 23.2523 58.994 24.4076 61.2089 24.6625C62.4917 24.8059 64.9935 19.5793 65.5273 18.655C65.7982 18.1849 68.8816 11.9464 68.5709 11.9066C64.8819 11.4843 60.938 7.4607 57.2252 9.86688C54.9226 11.3568 53.3211 14.751 52.0144 17.0058C51.0344 18.7028 50.0863 20.4477 49.2736 22.2404C48.7796 23.3399 46.987 26.8536 49.3135 22.6228C48.7 23.7383 47.712 25.3238 47.4092 26.6066C47.1861 27.5467 46.987 27.4671 47.5287 27.5308C48.6442 27.6663 52.134 20.623 52.5005 19.9458L52.5084 19.9537Z" fill="url(#paint10_linear_1063_651)"/>
<path d="M39.3305 55.2576C48.4453 56.2217 54.0385 67.7108 54.7476 75.9651C54.8352 76.9611 57.8708 72.3479 58.1019 71.9654C59.2253 70.1489 62.3884 66.197 62.1892 63.8625C61.4562 55.409 56.1738 43.5056 46.6924 42.5096C45.4017 42.3742 42.9079 47.5849 42.3741 48.5171C42.1032 48.9872 39.0357 55.2337 39.3305 55.2656V55.2576Z" fill="url(#paint11_linear_1063_651)"/>
<path d="M165.549 44.2465C164.896 53.0586 161.414 59.584 156.235 64.4521C152.204 68.2446 147.144 71.0253 141.615 73.065C141.615 73.065 141.615 73.0729 141.607 73.0729C139.83 73.7342 138.014 74.3238 136.157 74.8417C136.157 74.8417 136.157 74.8417 136.149 74.8417C132.683 75.8058 129.106 76.5468 125.545 77.1204C102.614 80.8094 79.6199 81.9885 56.4265 81.7734C38.5554 81.6061 18.4614 96.091 6.51018 108.496C9.85652 97.8439 14.9239 87.7411 21.4572 78.682L21.1704 78.6103C19.3777 78.1642 17.6248 77.6144 15.9437 76.9372C12.6451 75.6145 9.62547 73.798 7.0918 71.2563C-5.1622 58.9545 0.909029 39.0836 11.7289 28.1681C33.7032 5.9946 69.788 -0.714027 99.7059 0.0588202C109.402 0.31378 119.258 0.512967 128.795 2.4411C130.102 2.70403 131.393 2.99882 132.683 3.33346C133.337 3.50078 133.982 3.68403 134.627 3.87525C152.889 9.30111 167.039 23.9932 165.549 44.2465Z" fill="url(#paint12_linear_1063_651)"/>
<path d="M142.41 33.4587C141.509 39.1315 141.493 45.0115 142.92 50.6047C144.433 56.5405 146.879 61.8947 145.716 68.1571C145.573 68.9379 148.815 64.5797 149.07 64.1574C150.536 61.7751 152.632 58.875 153.158 56.0545C154.194 50.5171 152.576 45.641 151.007 40.3745C149.134 34.0961 148.823 27.8177 149.851 21.356C149.979 20.5354 146.744 24.9494 146.497 25.3557C145.063 27.6902 142.856 30.6621 142.41 33.4587Z" fill="url(#paint13_linear_1063_651)"/>
<path d="M147.605 64.0219L147.199 64.7708L151.652 57.7355C148.362 61.5997 142.33 63.735 138.259 59.9106C133.319 55.2656 135.407 47.8558 137.311 42.3423C138.259 39.6015 135.335 43.8004 135.12 44.127C133.311 46.836 131.383 49.8796 130.307 52.9869C128.084 59.4166 124.762 71.097 133.614 74.3557C141.55 77.2718 147.82 66.8742 150.784 61.3527C151.023 60.8986 153.557 56.1579 152.569 56.4448C150.832 56.9547 148.322 62.6754 147.597 64.0298L147.605 64.0219Z" fill="url(#paint14_linear_1063_651)"/>
<path d="M30.3185 30.3275C33.147 32.1202 36.2543 34.0961 39.7441 33.8651C42.8514 33.6579 44.6839 31.8891 46.4607 29.5148C48.5083 26.774 50.3169 23.6348 51.6634 20.4956C52.5638 18.4161 52.4203 17.7548 50.7631 19.9777C51.1057 19.5076 50.9543 19.5793 50.293 20.1769C49.6875 20.5514 49.0342 20.8143 48.341 20.9498C47.2654 21.2047 46.134 21.1888 45.0504 21.0135C42.3415 20.5753 39.9592 19.0137 37.6885 17.5795C36.9395 17.1094 29.219 29.6343 30.3265 30.3355L30.3185 30.3275Z" fill="url(#paint15_linear_1063_651)"/>
<path d="M73.7736 25.4593C68.2999 34.1997 57.1375 39.9203 47.4092 42.0556C45.7121 42.4301 43.8796 46.7007 43.0908 48.0631C42.2303 49.561 41.3379 51.0828 40.6766 52.6763C40.5969 52.8595 39.8799 54.8434 40.0472 54.8036C54.7472 51.5688 65.2404 42.0317 73.0485 29.5546C73.8692 28.2479 77.8051 22.9575 77.1359 21.4517C76.7455 20.5832 74.0206 25.0689 73.7816 25.4513L73.7736 25.4593Z" fill="url(#paint16_linear_1063_651)"/>
<path d="M120.33 24.1049C122.043 11.3171 105.088 3.05476 95.9333 12.1855C93.8299 14.281 92.3559 17.1811 90.9616 19.7706C90.372 20.8541 89.0972 22.5353 89.0574 23.7543C89.0574 23.8499 88.5395 25.3159 89.1769 24.6785C97.8216 16.0497 114.529 24.0411 112.888 36.2075C112.777 37.0521 116.003 32.6062 116.242 32.2078C117.653 29.9211 119.955 26.8696 120.33 24.1049Z" fill="url(#paint17_linear_1063_651)"/>
<path d="M133.105 26.9413C135.718 21.5712 137.67 16.1134 136.858 10.0422C136.196 5.07847 133.822 0.282036 128.181 2.68025C122.771 4.97489 118.493 10.3928 115.074 14.9821C110.82 20.6948 107.179 26.9652 104.151 33.4109C101.506 39.0359 99.3546 44.9956 98.7093 51.2182C98.1993 56.0943 97.5221 62.5639 99.3706 67.2807C103.075 76.7222 117.146 69.8064 122.038 65.0339C126.595 60.588 130.014 55.0267 133.209 49.5689C136.093 44.645 138.3 39.3228 142.347 35.2036C144.435 33.0762 145.917 30.2159 147.319 27.6185C147.909 26.5349 149.183 24.8538 149.223 23.6348C149.223 23.5471 149.733 22.0652 149.104 22.7105C141.519 30.4231 137.782 40.2709 131.782 49.0272C128.795 53.3854 124.58 56.6441 119.488 58.0464C115.664 59.0981 110.716 60.2613 107.888 56.66C104.661 52.5568 105.665 45.3541 106.023 40.5338C106.509 34.0881 108.278 27.5229 111.688 23.4037C114.349 20.1848 121.138 12.1616 125.998 15.1972C130.882 18.2567 130.404 28.3993 128.285 32.7496C127.791 33.7694 125.775 36.8289 127.838 35.5382C129.902 34.2475 132.045 29.1244 133.105 26.9492V26.9413Z" fill="url(#paint18_linear_1063_651)"/>
<path d="M79.4536 17.5793C74.6094 23.9135 68.7135 32.4945 69.5979 40.9002C70.3946 48.4454 76.2905 53.5765 83.788 53.8792C91.2854 54.182 100.671 49.4971 106.798 45.2982C110.136 43.0116 112.471 39.7449 114.574 36.3428C116.925 32.5263 119.243 28.5028 120.319 24.1127C120.55 23.1805 119.307 24.5907 119.458 24.4712C118.518 25.2361 117.562 27.1483 116.965 28.1124C115.443 30.5823 113.586 33.355 112.877 36.2153C114.59 29.2437 118.319 29.2119 114.479 32.1598C113.451 32.9486 112.312 33.6179 111.196 34.2712C108.909 35.6018 106.511 36.7571 104.073 37.7769C99.5875 39.6573 94.9345 41.5854 89.9787 41.0516C85.8675 40.6134 81.9076 38.7012 79.5015 35.2592C78.3223 33.5701 77.5335 31.626 77.159 29.6023C76.904 28.2398 76.8642 26.8216 76.9917 25.4432C77.3263 21.7224 79.6289 21.2762 73.725 28.9808C75.7647 26.3197 77.5096 23.3956 78.9915 20.3919C79.3023 19.7704 81.1268 15.3962 79.4377 17.6032L79.4536 17.5793Z" fill="url(#paint19_linear_1063_651)"/>
<path d="M94.9852 13.6278C91.0254 18.8625 85.6075 26.6786 87.0735 33.674C88.4439 40.1994 94.4195 45.0357 100.531 46.9559C106.315 48.7724 112.713 48.2944 118.091 45.4819C124.8 41.9762 128.751 34.8771 132.281 28.5031C132.528 28.049 135.054 23.3083 134.066 23.5952C132.305 24.1131 129.843 29.8178 129.094 31.1802C132.305 25.3799 130.751 28.5191 129.126 30.009C128.417 30.6623 127.636 31.2519 126.839 31.7937C124.855 33.1323 122.664 34.0884 120.338 34.6541C116.442 35.6022 112.283 35.4588 108.434 34.3513C104.562 33.2358 100.993 31.1324 98.2837 28.1366C96.9691 26.6866 95.8298 24.9974 95.1047 23.1729C94.5629 21.8025 94.2283 20.3683 94.2283 18.8784C94.2283 14.7273 97.3117 14.3768 90.6668 23.157C92.7224 20.44 94.547 17.2769 95.8696 14.1378C96.754 12.0503 96.6345 11.4129 94.9693 13.6199L94.9852 13.6278Z" fill="url(#paint20_linear_1063_651)"/>
<path d="M62.0809 62.8908C62.0729 63.1059 62.0411 63.321 62.0092 63.5441C61.5551 66.3407 59.364 69.3046 57.9219 71.6471C57.7068 71.9897 55.3723 75.1846 54.7269 75.6866C54.6074 75.7742 54.5437 75.7742 54.5676 75.6467C54.6074 75.3997 54.6313 75.1687 54.6393 74.9456C54.6711 74.1966 54.5516 73.5513 54.3126 72.9936C53.229 70.5157 49.795 69.6791 47.0303 68.9859C41.9949 67.727 38.0749 68.5397 33.4696 70.8025C29.0318 72.9856 24.9843 75.6388 21.1678 78.6106C19.3752 78.1645 17.6223 77.6147 15.9412 76.9375C23.7812 69.0257 32.1072 61.855 42.4012 57.2817C42.8952 57.0665 43.3812 56.8674 43.8593 56.7C47.6837 55.3217 51.2132 55.3615 55.3165 56.4849C58.0175 57.2179 60.591 58.1342 61.6268 60.2137C61.9933 60.9467 62.1685 61.8231 62.0809 62.8908Z" fill="url(#paint21_linear_1063_651)"/>
<path d="M52.5084 19.9537C53.2016 18.6869 53.8709 17.4121 54.4525 16.0895C54.5879 15.7788 55.6954 13.2531 55.058 14.4801L50.5006 22.1528C49.8712 22.8061 50.0863 22.7662 51.146 22.0332C51.624 21.9058 52.1101 21.85 52.612 21.8739C53.5123 21.8898 54.3967 22.1528 55.2253 22.4715C57.265 23.2523 58.994 24.4076 61.2089 24.6625C62.4917 24.8059 64.9935 19.5793 65.5273 18.655C65.7982 18.1849 68.8816 11.9464 68.5709 11.9066C64.8819 11.4843 60.938 7.4607 57.2252 9.86688C54.9226 11.3568 53.3211 14.751 52.0144 17.0058C51.0344 18.7028 50.0863 20.4477 49.2736 22.2404C48.7796 23.3399 46.987 26.8536 49.3135 22.6228C48.7 23.7383 47.712 25.3238 47.4092 26.6066C47.1861 27.5467 46.987 27.4671 47.5287 27.5308C48.6442 27.6663 52.134 20.623 52.5005 19.9458L52.5084 19.9537Z" fill="url(#paint22_linear_1063_651)"/>
<path d="M39.3305 55.2576C48.4453 56.2217 54.0385 67.7108 54.7476 75.9651C54.8352 76.9611 57.8708 72.3479 58.1019 71.9654C59.2253 70.1489 62.3884 66.197 62.1892 63.8625C61.4562 55.409 56.1738 43.5056 46.6924 42.5096C45.4017 42.3742 42.9079 47.5849 42.3741 48.5171C42.1032 48.9872 39.0357 55.2337 39.3305 55.2656V55.2576Z" fill="url(#paint23_linear_1063_651)"/>
<defs>
<linearGradient id="paint0_linear_1063_651" x1="11.0357" y1="25.3636" x2="143.687" y2="92.9518" gradientUnits="userSpaceOnUse">
<stop offset="0.2" stop-color="#ED1C24"/>
<stop offset="0.54" stop-color="#B9131D"/>
<stop offset="0.84" stop-color="#910C17"/>
<stop offset="1" stop-color="#830A16"/>
</linearGradient>
<linearGradient id="paint1_linear_1063_651" x1="157.468" y1="52.8755" x2="138.107" y2="36.6377" gradientUnits="userSpaceOnUse">
<stop stop-color="#D1A094"/>
<stop offset="0.14" stop-color="#DBB5AB"/>
<stop offset="0.39" stop-color="#EAD5CF"/>
<stop offset="0.62" stop-color="#F5ECE9"/>
<stop offset="0.83" stop-color="#FCFAF9"/>
<stop offset="1" stop-color="white"/>
</linearGradient>
<linearGradient id="paint2_linear_1063_651" x1="129.981" y1="50.6046" x2="144.354" y2="67.7347" gradientUnits="userSpaceOnUse">
<stop stop-color="#D1A094"/>
<stop offset="0.14" stop-color="#DBB5AB"/>
<stop offset="0.39" stop-color="#EAD5CF"/>
<stop offset="0.62" stop-color="#F5ECE9"/>
<stop offset="0.83" stop-color="#FCFAF9"/>
<stop offset="1" stop-color="white"/>
</linearGradient>
<linearGradient id="paint3_linear_1063_651" x1="35.5532" y1="21.2286" x2="47.0742" y2="27.8815" gradientUnits="userSpaceOnUse">
<stop stop-color="white"/>
<stop offset="0.28" stop-color="#FDFCFB"/>
<stop offset="0.48" stop-color="#F9F4F2"/>
<stop offset="0.67" stop-color="#F2E6E2"/>
<stop offset="0.85" stop-color="#E8D2CB"/>
<stop offset="1" stop-color="#DDBBB0"/>
</linearGradient>
<linearGradient id="paint4_linear_1063_651" x1="43.6724" y1="38.0798" x2="73.6142" y2="38.0798" gradientUnits="userSpaceOnUse">
<stop stop-color="#EBD8D2"/>
<stop offset="0.37" stop-color="#F5ECE9"/>
<stop offset="0.72" stop-color="#FCFAF9"/>
<stop offset="1" stop-color="white"/>
</linearGradient>
<linearGradient id="paint5_linear_1063_651" x1="114.123" y1="32.4867" x2="98.0686" y2="13.3567" gradientUnits="userSpaceOnUse">
<stop stop-color="white"/>
<stop offset="0.3" stop-color="#FDFCFC"/>
<stop offset="0.52" stop-color="#F9F4F2"/>
<stop offset="0.71" stop-color="#F2E6E2"/>
<stop offset="0.89" stop-color="#E8D3CC"/>
<stop offset="1" stop-color="#E1C4BA"/>
</linearGradient>
<linearGradient id="paint6_linear_1063_651" x1="96.6696" y1="50.5888" x2="142.889" y2="23.9057" gradientUnits="userSpaceOnUse">
<stop stop-color="#DFBFB5"/>
<stop offset="1" stop-color="white"/>
</linearGradient>
<linearGradient id="paint7_linear_1063_651" x1="73.4302" y1="28.8294" x2="112.343" y2="42.9956" gradientUnits="userSpaceOnUse">
<stop stop-color="white"/>
<stop offset="0.29" stop-color="#FCFAF9"/>
<stop offset="0.65" stop-color="#F5ECE9"/>
<stop offset="1" stop-color="#EBDAD4"/>
</linearGradient>
<linearGradient id="paint8_linear_1063_651" x1="94.7382" y1="36.0563" x2="124.513" y2="18.8704" gradientUnits="userSpaceOnUse">
<stop stop-color="white"/>
<stop offset="0.17" stop-color="#FCFAF9"/>
<stop offset="0.38" stop-color="#F5ECE9"/>
<stop offset="0.61" stop-color="#EAD5CF"/>
<stop offset="0.86" stop-color="#DBB5AB"/>
<stop offset="1" stop-color="#D1A094"/>
</linearGradient>
<linearGradient id="paint9_linear_1063_651" x1="20.2994" y1="64.3249" x2="58.5672" y2="71.0734" gradientUnits="userSpaceOnUse">
<stop stop-color="white"/>
<stop offset="0.44" stop-color="#FEFDFD"/>
<stop offset="0.6" stop-color="#FBF7F6"/>
<stop offset="0.72" stop-color="#F6ECEA"/>
<stop offset="0.81" stop-color="#EEDDD9"/>
<stop offset="0.89" stop-color="#E5CAC3"/>
<stop offset="0.96" stop-color="#DAB2A9"/>
<stop offset="1" stop-color="#D1A094"/>
</linearGradient>
<linearGradient id="paint10_linear_1063_651" x1="52.9387" y1="16.4799" x2="62.2766" y2="22.5432" gradientUnits="userSpaceOnUse">
<stop stop-color="white"/>
<stop offset="0.42" stop-color="#FEFDFC"/>
<stop offset="0.6" stop-color="#FBF7F5"/>
<stop offset="0.74" stop-color="#F5ECE9"/>
<stop offset="0.85" stop-color="#EEDDD7"/>
<stop offset="0.95" stop-color="#E4C9C0"/>
<stop offset="1" stop-color="#DDBBB0"/>
</linearGradient>
<linearGradient id="paint11_linear_1063_651" x1="43.6967" y1="48.0709" x2="60.6435" y2="68.2765" gradientUnits="userSpaceOnUse">
<stop stop-color="white"/>
<stop offset="0.36" stop-color="#FDFCFC"/>
<stop offset="0.57" stop-color="#FAF5F4"/>
<stop offset="0.73" stop-color="#F4E9E6"/>
<stop offset="0.88" stop-color="#EBD8D2"/>
<stop offset="1" stop-color="#E2C5BC"/>
</linearGradient>
<linearGradient id="paint12_linear_1063_651" x1="11.0357" y1="25.3636" x2="143.687" y2="92.9518" gradientUnits="userSpaceOnUse">
<stop offset="0.2" stop-color="#ED1C24"/>
<stop offset="0.54" stop-color="#B9131D"/>
<stop offset="0.84" stop-color="#910C17"/>
<stop offset="1" stop-color="#830A16"/>
</linearGradient>
<linearGradient id="paint13_linear_1063_651" x1="157.468" y1="52.8755" x2="138.107" y2="36.6377" gradientUnits="userSpaceOnUse">
<stop stop-color="#D1A094"/>
<stop offset="0.14" stop-color="#DBB5AB"/>
<stop offset="0.39" stop-color="#EAD5CF"/>
<stop offset="0.62" stop-color="#F5ECE9"/>
<stop offset="0.83" stop-color="#FCFAF9"/>
<stop offset="1" stop-color="white"/>
</linearGradient>
<linearGradient id="paint14_linear_1063_651" x1="129.981" y1="50.6046" x2="144.354" y2="67.7347" gradientUnits="userSpaceOnUse">
<stop stop-color="#D1A094"/>
<stop offset="0.14" stop-color="#DBB5AB"/>
<stop offset="0.39" stop-color="#EAD5CF"/>
<stop offset="0.62" stop-color="#F5ECE9"/>
<stop offset="0.83" stop-color="#FCFAF9"/>
<stop offset="1" stop-color="white"/>
</linearGradient>
<linearGradient id="paint15_linear_1063_651" x1="35.5532" y1="21.2286" x2="47.0742" y2="27.8815" gradientUnits="userSpaceOnUse">
<stop stop-color="white"/>
<stop offset="0.28" stop-color="#FDFCFB"/>
<stop offset="0.48" stop-color="#F9F4F2"/>
<stop offset="0.67" stop-color="#F2E6E2"/>
<stop offset="0.85" stop-color="#E8D2CB"/>
<stop offset="1" stop-color="#DDBBB0"/>
</linearGradient>
<linearGradient id="paint16_linear_1063_651" x1="43.6724" y1="38.0798" x2="73.6142" y2="38.0798" gradientUnits="userSpaceOnUse">
<stop stop-color="#EBD8D2"/>
<stop offset="0.37" stop-color="#F5ECE9"/>
<stop offset="0.72" stop-color="#FCFAF9"/>
<stop offset="1" stop-color="white"/>
</linearGradient>
<linearGradient id="paint17_linear_1063_651" x1="114.123" y1="32.4867" x2="98.0686" y2="13.3567" gradientUnits="userSpaceOnUse">
<stop stop-color="white"/>
<stop offset="0.3" stop-color="#FDFCFC"/>
<stop offset="0.52" stop-color="#F9F4F2"/>
<stop offset="0.71" stop-color="#F2E6E2"/>
<stop offset="0.89" stop-color="#E8D3CC"/>
<stop offset="1" stop-color="#E1C4BA"/>
</linearGradient>
<linearGradient id="paint18_linear_1063_651" x1="96.6696" y1="50.5888" x2="142.889" y2="23.9057" gradientUnits="userSpaceOnUse">
<stop stop-color="#DFBFB5"/>
<stop offset="1" stop-color="white"/>
</linearGradient>
<linearGradient id="paint19_linear_1063_651" x1="73.4302" y1="28.8294" x2="112.343" y2="42.9956" gradientUnits="userSpaceOnUse">
<stop stop-color="white"/>
<stop offset="0.29" stop-color="#FCFAF9"/>
<stop offset="0.65" stop-color="#F5ECE9"/>
<stop offset="1" stop-color="#EBDAD4"/>
</linearGradient>
<linearGradient id="paint20_linear_1063_651" x1="94.7382" y1="36.0563" x2="124.513" y2="18.8704" gradientUnits="userSpaceOnUse">
<stop stop-color="white"/>
<stop offset="0.17" stop-color="#FCFAF9"/>
<stop offset="0.38" stop-color="#F5ECE9"/>
<stop offset="0.61" stop-color="#EAD5CF"/>
<stop offset="0.86" stop-color="#DBB5AB"/>
<stop offset="1" stop-color="#D1A094"/>
</linearGradient>
<linearGradient id="paint21_linear_1063_651" x1="20.2994" y1="64.3249" x2="58.5672" y2="71.0734" gradientUnits="userSpaceOnUse">
<stop stop-color="white"/>
<stop offset="0.44" stop-color="#FEFDFD"/>
<stop offset="0.6" stop-color="#FBF7F6"/>
<stop offset="0.72" stop-color="#F6ECEA"/>
<stop offset="0.81" stop-color="#EEDDD9"/>
<stop offset="0.89" stop-color="#E5CAC3"/>
<stop offset="0.96" stop-color="#DAB2A9"/>
<stop offset="1" stop-color="#D1A094"/>
</linearGradient>
<linearGradient id="paint22_linear_1063_651" x1="52.9387" y1="16.4799" x2="62.2766" y2="22.5432" gradientUnits="userSpaceOnUse">
<stop stop-color="white"/>
<stop offset="0.42" stop-color="#FEFDFC"/>
<stop offset="0.6" stop-color="#FBF7F5"/>
<stop offset="0.74" stop-color="#F5ECE9"/>
<stop offset="0.85" stop-color="#EEDDD7"/>
<stop offset="0.95" stop-color="#E4C9C0"/>
<stop offset="1" stop-color="#DDBBB0"/>
</linearGradient>
<linearGradient id="paint23_linear_1063_651" x1="43.6967" y1="48.0709" x2="60.6435" y2="68.2765" gradientUnits="userSpaceOnUse">
<stop stop-color="white"/>
<stop offset="0.36" stop-color="#FDFCFC"/>
<stop offset="0.57" stop-color="#FAF5F4"/>
<stop offset="0.73" stop-color="#F4E9E6"/>
<stop offset="0.88" stop-color="#EBD8D2"/>
<stop offset="1" stop-color="#E2C5BC"/>
</linearGradient>
</defs>
</svg>
